# xmcd
#
# Track frame offsets: 
#        150
#        19659
#        33759
#        49056
#        66757
#        92212
#        112083
#        139128
#        151067
#        156781
#        165178
#
# Disc length: 2444 seconds
#
# Revision: 0
# Processed by: cddbd v1.5.2PL0 Copyright (c) Steve Scherf et al.
# Submitted via: ExactAudioCopy v1.1
#
DISCID=80098a0b
DTITLE=Allen Toussaint - Live 1989 Chicago Blues Festival
DYEAR=2016
DGENRE=Funk
TTITLE0=Fun Time
TTITLE1=Shoorah Shoorah
TTITLE2=A Certain Girl
TTITLE3=All These Things
TTITLE4=Who's Minding the Store
TTITLE5=Brickyard Blues
TTITLE6=Rockin' Pneumonia
TTITLE7=Laisser le Bon Temps Rouler
TTITLE8=With You in Mind
TTITLE9=Southern Nights
TTITLE10=Fun Time (band introductions)
EXTD=
EXTT0=
EXTT1=
EXTT2=
EXTT3=
EXTT4=
EXTT5=
EXTT6=
EXTT7=
EXTT8=
EXTT9=
EXTT10=
PLAYORDER=
